<mxfile host="app.diagrams.net" modified="2022-08-08T08:17:07.115Z" agent="5.0 (Macintosh; Intel Mac OS X 10_15_7) AppleWebKit/537.36 (KHTML, like Gecko) Chrome/103.0.0.0 Safari/537.36" etag="3poKmcFK4D6GDir8hYng" version="20.2.3" type="github">
  <diagram id="C5RBs43oDa-KdzZeNtuy" name="Page-1">
    <mxGraphModel dx="1298" dy="866" grid="1" gridSize="10" guides="1" tooltips="1" connect="1" arrows="1" fold="1" page="1" pageScale="1" pageWidth="827" pageHeight="1169" math="0" shadow="0">
      <root>
        <mxCell id="WIyWlLk6GJQsqaUBKTNV-0" />
        <mxCell id="WIyWlLk6GJQsqaUBKTNV-1" parent="WIyWlLk6GJQsqaUBKTNV-0" />
        <mxCell id="ftfC63ZBlbfTwAoboH8k-62" value="" style="rounded=0;whiteSpace=wrap;html=1;fillColor=#fff2cc;strokeColor=#d6b656;" vertex="1" parent="WIyWlLk6GJQsqaUBKTNV-1">
          <mxGeometry x="200" y="890" width="170" height="110" as="geometry" />
        </mxCell>
        <mxCell id="ftfC63ZBlbfTwAoboH8k-55" value="" style="shape=hexagon;perimeter=hexagonPerimeter2;whiteSpace=wrap;html=1;fixedSize=1;fillColor=#fff2cc;strokeColor=#d6b656;" vertex="1" parent="WIyWlLk6GJQsqaUBKTNV-1">
          <mxGeometry x="180" y="650" width="580" height="260" as="geometry" />
        </mxCell>
        <mxCell id="ftfC63ZBlbfTwAoboH8k-53" value="" style="shape=hexagon;perimeter=hexagonPerimeter2;whiteSpace=wrap;html=1;fixedSize=1;fillColor=#fff2cc;strokeColor=#d6b656;" vertex="1" parent="WIyWlLk6GJQsqaUBKTNV-1">
          <mxGeometry x="60" y="190" width="580" height="310" as="geometry" />
        </mxCell>
        <mxCell id="ftfC63ZBlbfTwAoboH8k-19" style="edgeStyle=orthogonalEdgeStyle;rounded=0;orthogonalLoop=1;jettySize=auto;html=1;exitX=0.5;exitY=1;exitDx=0;exitDy=0;" edge="1" parent="WIyWlLk6GJQsqaUBKTNV-1" source="ftfC63ZBlbfTwAoboH8k-8" target="ftfC63ZBlbfTwAoboH8k-18">
          <mxGeometry relative="1" as="geometry" />
        </mxCell>
        <mxCell id="ftfC63ZBlbfTwAoboH8k-8" value="" style="rounded=0;whiteSpace=wrap;html=1;" vertex="1" parent="WIyWlLk6GJQsqaUBKTNV-1">
          <mxGeometry x="160" y="260" width="290" height="60" as="geometry" />
        </mxCell>
        <mxCell id="ftfC63ZBlbfTwAoboH8k-13" style="edgeStyle=orthogonalEdgeStyle;rounded=0;orthogonalLoop=1;jettySize=auto;html=1;exitX=0.5;exitY=1;exitDx=0;exitDy=0;entryX=0.5;entryY=0;entryDx=0;entryDy=0;" edge="1" parent="WIyWlLk6GJQsqaUBKTNV-1" source="WIyWlLk6GJQsqaUBKTNV-3" target="ftfC63ZBlbfTwAoboH8k-0">
          <mxGeometry relative="1" as="geometry">
            <Array as="points">
              <mxPoint x="220" y="130" />
              <mxPoint x="130" y="130" />
            </Array>
          </mxGeometry>
        </mxCell>
        <mxCell id="ftfC63ZBlbfTwAoboH8k-15" style="edgeStyle=orthogonalEdgeStyle;rounded=0;orthogonalLoop=1;jettySize=auto;html=1;exitX=0.5;exitY=1;exitDx=0;exitDy=0;entryX=0.5;entryY=0;entryDx=0;entryDy=0;" edge="1" parent="WIyWlLk6GJQsqaUBKTNV-1" source="WIyWlLk6GJQsqaUBKTNV-3" target="ftfC63ZBlbfTwAoboH8k-1">
          <mxGeometry relative="1" as="geometry">
            <Array as="points">
              <mxPoint x="220" y="130" />
              <mxPoint x="300" y="130" />
            </Array>
          </mxGeometry>
        </mxCell>
        <mxCell id="WIyWlLk6GJQsqaUBKTNV-3" value="冒泡产生预估价" style="rounded=1;whiteSpace=wrap;html=1;fontSize=12;glass=0;strokeWidth=1;shadow=0;" parent="WIyWlLk6GJQsqaUBKTNV-1" vertex="1">
          <mxGeometry x="170" y="70" width="120" height="40" as="geometry" />
        </mxCell>
        <mxCell id="ftfC63ZBlbfTwAoboH8k-0" value="不提单" style="rounded=1;whiteSpace=wrap;html=1;fontSize=12;glass=0;strokeWidth=1;shadow=0;" vertex="1" parent="WIyWlLk6GJQsqaUBKTNV-1">
          <mxGeometry x="80" y="140" width="120" height="40" as="geometry" />
        </mxCell>
        <mxCell id="ftfC63ZBlbfTwAoboH8k-4" style="edgeStyle=orthogonalEdgeStyle;rounded=0;orthogonalLoop=1;jettySize=auto;html=1;exitX=0.5;exitY=1;exitDx=0;exitDy=0;entryX=0.5;entryY=0;entryDx=0;entryDy=0;" edge="1" parent="WIyWlLk6GJQsqaUBKTNV-1" source="ftfC63ZBlbfTwAoboH8k-1" target="ftfC63ZBlbfTwAoboH8k-2">
          <mxGeometry relative="1" as="geometry" />
        </mxCell>
        <mxCell id="ftfC63ZBlbfTwAoboH8k-5" style="edgeStyle=orthogonalEdgeStyle;rounded=0;orthogonalLoop=1;jettySize=auto;html=1;exitX=0.5;exitY=1;exitDx=0;exitDy=0;" edge="1" parent="WIyWlLk6GJQsqaUBKTNV-1" source="ftfC63ZBlbfTwAoboH8k-1" target="ftfC63ZBlbfTwAoboH8k-3">
          <mxGeometry relative="1" as="geometry" />
        </mxCell>
        <mxCell id="ftfC63ZBlbfTwAoboH8k-1" value="点击提单" style="rounded=1;whiteSpace=wrap;html=1;fontSize=12;glass=0;strokeWidth=1;shadow=0;" vertex="1" parent="WIyWlLk6GJQsqaUBKTNV-1">
          <mxGeometry x="240" y="140" width="120" height="40" as="geometry" />
        </mxCell>
        <mxCell id="ftfC63ZBlbfTwAoboH8k-9" style="edgeStyle=orthogonalEdgeStyle;rounded=0;orthogonalLoop=1;jettySize=auto;html=1;exitX=0.5;exitY=1;exitDx=0;exitDy=0;entryX=0.25;entryY=0;entryDx=0;entryDy=0;" edge="1" parent="WIyWlLk6GJQsqaUBKTNV-1" source="ftfC63ZBlbfTwAoboH8k-2" target="ftfC63ZBlbfTwAoboH8k-8">
          <mxGeometry relative="1" as="geometry" />
        </mxCell>
        <mxCell id="ftfC63ZBlbfTwAoboH8k-2" value="坏账策略决策" style="rounded=1;whiteSpace=wrap;html=1;fontSize=12;glass=0;strokeWidth=1;shadow=0;" vertex="1" parent="WIyWlLk6GJQsqaUBKTNV-1">
          <mxGeometry x="180" y="210" width="120" height="40" as="geometry" />
        </mxCell>
        <mxCell id="ftfC63ZBlbfTwAoboH8k-10" style="edgeStyle=orthogonalEdgeStyle;rounded=0;orthogonalLoop=1;jettySize=auto;html=1;exitX=0.5;exitY=1;exitDx=0;exitDy=0;entryX=0.714;entryY=0;entryDx=0;entryDy=0;entryPerimeter=0;" edge="1" parent="WIyWlLk6GJQsqaUBKTNV-1" source="ftfC63ZBlbfTwAoboH8k-3" target="ftfC63ZBlbfTwAoboH8k-8">
          <mxGeometry relative="1" as="geometry" />
        </mxCell>
        <mxCell id="ftfC63ZBlbfTwAoboH8k-3" value="作弊策略决策" style="rounded=1;whiteSpace=wrap;html=1;fontSize=12;glass=0;strokeWidth=1;shadow=0;" vertex="1" parent="WIyWlLk6GJQsqaUBKTNV-1">
          <mxGeometry x="310" y="210" width="120" height="40" as="geometry" />
        </mxCell>
        <mxCell id="ftfC63ZBlbfTwAoboH8k-6" value="基于规则" style="rounded=1;whiteSpace=wrap;html=1;fontSize=12;glass=0;strokeWidth=1;shadow=0;" vertex="1" parent="WIyWlLk6GJQsqaUBKTNV-1">
          <mxGeometry x="180" y="270" width="120" height="40" as="geometry" />
        </mxCell>
        <mxCell id="ftfC63ZBlbfTwAoboH8k-7" value="基于模型" style="rounded=1;whiteSpace=wrap;html=1;fontSize=12;glass=0;strokeWidth=1;shadow=0;" vertex="1" parent="WIyWlLk6GJQsqaUBKTNV-1">
          <mxGeometry x="310" y="270" width="120" height="40" as="geometry" />
        </mxCell>
        <mxCell id="ftfC63ZBlbfTwAoboH8k-11" value="提单失败" style="rounded=1;whiteSpace=wrap;html=1;fontSize=12;glass=0;strokeWidth=1;shadow=0;" vertex="1" parent="WIyWlLk6GJQsqaUBKTNV-1">
          <mxGeometry x="110" y="360" width="120" height="40" as="geometry" />
        </mxCell>
        <mxCell id="ftfC63ZBlbfTwAoboH8k-24" style="edgeStyle=orthogonalEdgeStyle;rounded=0;orthogonalLoop=1;jettySize=auto;html=1;exitX=0.5;exitY=1;exitDx=0;exitDy=0;" edge="1" parent="WIyWlLk6GJQsqaUBKTNV-1" source="ftfC63ZBlbfTwAoboH8k-12" target="ftfC63ZBlbfTwAoboH8k-16">
          <mxGeometry relative="1" as="geometry" />
        </mxCell>
        <mxCell id="ftfC63ZBlbfTwAoboH8k-25" style="edgeStyle=orthogonalEdgeStyle;rounded=0;orthogonalLoop=1;jettySize=auto;html=1;exitX=0.5;exitY=1;exitDx=0;exitDy=0;entryX=0.5;entryY=0;entryDx=0;entryDy=0;" edge="1" parent="WIyWlLk6GJQsqaUBKTNV-1" source="ftfC63ZBlbfTwAoboH8k-12" target="ftfC63ZBlbfTwAoboH8k-17">
          <mxGeometry relative="1" as="geometry" />
        </mxCell>
        <mxCell id="ftfC63ZBlbfTwAoboH8k-12" value="提单成功" style="rounded=1;whiteSpace=wrap;html=1;fontSize=12;glass=0;strokeWidth=1;shadow=0;" vertex="1" parent="WIyWlLk6GJQsqaUBKTNV-1">
          <mxGeometry x="245" y="450" width="120" height="40" as="geometry" />
        </mxCell>
        <mxCell id="ftfC63ZBlbfTwAoboH8k-16" value="调度环节风控" style="rounded=1;whiteSpace=wrap;html=1;fontSize=12;glass=0;strokeWidth=1;shadow=0;" vertex="1" parent="WIyWlLk6GJQsqaUBKTNV-1">
          <mxGeometry x="160" y="530" width="120" height="40" as="geometry" />
        </mxCell>
        <mxCell id="ftfC63ZBlbfTwAoboH8k-34" style="edgeStyle=orthogonalEdgeStyle;rounded=0;orthogonalLoop=1;jettySize=auto;html=1;exitX=0.5;exitY=1;exitDx=0;exitDy=0;entryX=0.5;entryY=0;entryDx=0;entryDy=0;" edge="1" parent="WIyWlLk6GJQsqaUBKTNV-1" source="ftfC63ZBlbfTwAoboH8k-17" target="ftfC63ZBlbfTwAoboH8k-28">
          <mxGeometry relative="1" as="geometry" />
        </mxCell>
        <mxCell id="ftfC63ZBlbfTwAoboH8k-35" style="edgeStyle=orthogonalEdgeStyle;rounded=0;orthogonalLoop=1;jettySize=auto;html=1;exitX=0.5;exitY=1;exitDx=0;exitDy=0;entryX=0.5;entryY=0;entryDx=0;entryDy=0;" edge="1" parent="WIyWlLk6GJQsqaUBKTNV-1" source="ftfC63ZBlbfTwAoboH8k-17" target="ftfC63ZBlbfTwAoboH8k-29">
          <mxGeometry relative="1" as="geometry" />
        </mxCell>
        <mxCell id="ftfC63ZBlbfTwAoboH8k-17" value="调度派单" style="rounded=1;whiteSpace=wrap;html=1;fontSize=12;glass=0;strokeWidth=1;shadow=0;" vertex="1" parent="WIyWlLk6GJQsqaUBKTNV-1">
          <mxGeometry x="330" y="530" width="120" height="40" as="geometry" />
        </mxCell>
        <mxCell id="ftfC63ZBlbfTwAoboH8k-20" style="edgeStyle=orthogonalEdgeStyle;rounded=0;orthogonalLoop=1;jettySize=auto;html=1;exitX=0;exitY=0.5;exitDx=0;exitDy=0;entryX=1;entryY=0.5;entryDx=0;entryDy=0;" edge="1" parent="WIyWlLk6GJQsqaUBKTNV-1" source="ftfC63ZBlbfTwAoboH8k-18" target="ftfC63ZBlbfTwAoboH8k-11">
          <mxGeometry relative="1" as="geometry" />
        </mxCell>
        <mxCell id="ftfC63ZBlbfTwAoboH8k-22" style="edgeStyle=orthogonalEdgeStyle;rounded=0;orthogonalLoop=1;jettySize=auto;html=1;exitX=0.5;exitY=1;exitDx=0;exitDy=0;" edge="1" parent="WIyWlLk6GJQsqaUBKTNV-1" source="ftfC63ZBlbfTwAoboH8k-18" target="ftfC63ZBlbfTwAoboH8k-12">
          <mxGeometry relative="1" as="geometry" />
        </mxCell>
        <mxCell id="ftfC63ZBlbfTwAoboH8k-18" value="是否&lt;br&gt;接受拦截" style="rhombus;whiteSpace=wrap;html=1;" vertex="1" parent="WIyWlLk6GJQsqaUBKTNV-1">
          <mxGeometry x="265" y="340" width="80" height="80" as="geometry" />
        </mxCell>
        <mxCell id="ftfC63ZBlbfTwAoboH8k-21" value="否" style="text;html=1;align=center;verticalAlign=middle;resizable=0;points=[];autosize=1;strokeColor=none;fillColor=none;" vertex="1" parent="WIyWlLk6GJQsqaUBKTNV-1">
          <mxGeometry x="230" y="355" width="40" height="30" as="geometry" />
        </mxCell>
        <mxCell id="ftfC63ZBlbfTwAoboH8k-23" value="是" style="text;html=1;align=center;verticalAlign=middle;resizable=0;points=[];autosize=1;strokeColor=none;fillColor=none;" vertex="1" parent="WIyWlLk6GJQsqaUBKTNV-1">
          <mxGeometry x="290" y="415" width="40" height="30" as="geometry" />
        </mxCell>
        <mxCell id="ftfC63ZBlbfTwAoboH8k-36" style="edgeStyle=orthogonalEdgeStyle;rounded=0;orthogonalLoop=1;jettySize=auto;html=1;exitX=0.5;exitY=1;exitDx=0;exitDy=0;" edge="1" parent="WIyWlLk6GJQsqaUBKTNV-1" source="ftfC63ZBlbfTwAoboH8k-27" target="ftfC63ZBlbfTwAoboH8k-33">
          <mxGeometry relative="1" as="geometry" />
        </mxCell>
        <mxCell id="ftfC63ZBlbfTwAoboH8k-37" style="edgeStyle=orthogonalEdgeStyle;rounded=0;orthogonalLoop=1;jettySize=auto;html=1;exitX=1;exitY=0.5;exitDx=0;exitDy=0;entryX=0;entryY=0.5;entryDx=0;entryDy=0;" edge="1" parent="WIyWlLk6GJQsqaUBKTNV-1" source="ftfC63ZBlbfTwAoboH8k-27" target="ftfC63ZBlbfTwAoboH8k-32">
          <mxGeometry relative="1" as="geometry" />
        </mxCell>
        <mxCell id="ftfC63ZBlbfTwAoboH8k-27" value="是否支付" style="rhombus;whiteSpace=wrap;html=1;" vertex="1" parent="WIyWlLk6GJQsqaUBKTNV-1">
          <mxGeometry x="410" y="660" width="80" height="80" as="geometry" />
        </mxCell>
        <mxCell id="ftfC63ZBlbfTwAoboH8k-28" value="不成单" style="rounded=1;whiteSpace=wrap;html=1;fontSize=12;glass=0;strokeWidth=1;shadow=0;" vertex="1" parent="WIyWlLk6GJQsqaUBKTNV-1">
          <mxGeometry x="250" y="600" width="120" height="40" as="geometry" />
        </mxCell>
        <mxCell id="ftfC63ZBlbfTwAoboH8k-31" style="edgeStyle=orthogonalEdgeStyle;rounded=0;orthogonalLoop=1;jettySize=auto;html=1;exitX=0.5;exitY=1;exitDx=0;exitDy=0;entryX=0.5;entryY=0;entryDx=0;entryDy=0;" edge="1" parent="WIyWlLk6GJQsqaUBKTNV-1" source="ftfC63ZBlbfTwAoboH8k-29" target="ftfC63ZBlbfTwAoboH8k-27">
          <mxGeometry relative="1" as="geometry" />
        </mxCell>
        <mxCell id="ftfC63ZBlbfTwAoboH8k-29" value="成单" style="rounded=1;whiteSpace=wrap;html=1;fontSize=12;glass=0;strokeWidth=1;shadow=0;" vertex="1" parent="WIyWlLk6GJQsqaUBKTNV-1">
          <mxGeometry x="390" y="600" width="120" height="40" as="geometry" />
        </mxCell>
        <mxCell id="ftfC63ZBlbfTwAoboH8k-44" style="edgeStyle=orthogonalEdgeStyle;rounded=0;orthogonalLoop=1;jettySize=auto;html=1;exitX=0.5;exitY=1;exitDx=0;exitDy=0;" edge="1" parent="WIyWlLk6GJQsqaUBKTNV-1" source="ftfC63ZBlbfTwAoboH8k-32" target="ftfC63ZBlbfTwAoboH8k-43">
          <mxGeometry relative="1" as="geometry" />
        </mxCell>
        <mxCell id="ftfC63ZBlbfTwAoboH8k-32" value="坏账" style="rounded=1;whiteSpace=wrap;html=1;fontSize=12;glass=0;strokeWidth=1;shadow=0;" vertex="1" parent="WIyWlLk6GJQsqaUBKTNV-1">
          <mxGeometry x="540" y="680" width="120" height="40" as="geometry" />
        </mxCell>
        <mxCell id="ftfC63ZBlbfTwAoboH8k-61" style="edgeStyle=orthogonalEdgeStyle;rounded=0;orthogonalLoop=1;jettySize=auto;html=1;exitX=0;exitY=0.5;exitDx=0;exitDy=0;entryX=1;entryY=0.5;entryDx=0;entryDy=0;" edge="1" parent="WIyWlLk6GJQsqaUBKTNV-1" source="ftfC63ZBlbfTwAoboH8k-33" target="ftfC63ZBlbfTwAoboH8k-60">
          <mxGeometry relative="1" as="geometry" />
        </mxCell>
        <mxCell id="ftfC63ZBlbfTwAoboH8k-33" value="订单完成" style="rounded=1;whiteSpace=wrap;html=1;fontSize=12;glass=0;strokeWidth=1;shadow=0;" vertex="1" parent="WIyWlLk6GJQsqaUBKTNV-1">
          <mxGeometry x="390" y="940" width="120" height="40" as="geometry" />
        </mxCell>
        <mxCell id="ftfC63ZBlbfTwAoboH8k-46" style="edgeStyle=orthogonalEdgeStyle;rounded=0;orthogonalLoop=1;jettySize=auto;html=1;entryX=1;entryY=0.5;entryDx=0;entryDy=0;" edge="1" parent="WIyWlLk6GJQsqaUBKTNV-1" source="ftfC63ZBlbfTwAoboH8k-38" target="ftfC63ZBlbfTwAoboH8k-33">
          <mxGeometry relative="1" as="geometry" />
        </mxCell>
        <mxCell id="ftfC63ZBlbfTwAoboH8k-49" style="edgeStyle=orthogonalEdgeStyle;rounded=0;orthogonalLoop=1;jettySize=auto;html=1;exitX=0.5;exitY=1;exitDx=0;exitDy=0;entryX=0;entryY=0.5;entryDx=0;entryDy=0;" edge="1" parent="WIyWlLk6GJQsqaUBKTNV-1" source="ftfC63ZBlbfTwAoboH8k-38" target="ftfC63ZBlbfTwAoboH8k-48">
          <mxGeometry relative="1" as="geometry" />
        </mxCell>
        <mxCell id="ftfC63ZBlbfTwAoboH8k-38" value="" style="rounded=0;whiteSpace=wrap;html=1;" vertex="1" parent="WIyWlLk6GJQsqaUBKTNV-1">
          <mxGeometry x="470" y="790" width="260" height="60" as="geometry" />
        </mxCell>
        <mxCell id="ftfC63ZBlbfTwAoboH8k-39" value="基于规则" style="rounded=1;whiteSpace=wrap;html=1;fontSize=12;glass=0;strokeWidth=1;shadow=0;" vertex="1" parent="WIyWlLk6GJQsqaUBKTNV-1">
          <mxGeometry x="480" y="800" width="120" height="40" as="geometry" />
        </mxCell>
        <mxCell id="ftfC63ZBlbfTwAoboH8k-40" value="基于模型" style="rounded=1;whiteSpace=wrap;html=1;fontSize=12;glass=0;strokeWidth=1;shadow=0;" vertex="1" parent="WIyWlLk6GJQsqaUBKTNV-1">
          <mxGeometry x="600" y="800" width="120" height="40" as="geometry" />
        </mxCell>
        <mxCell id="ftfC63ZBlbfTwAoboH8k-41" value="否" style="text;html=1;align=center;verticalAlign=middle;resizable=0;points=[];autosize=1;strokeColor=none;fillColor=none;" vertex="1" parent="WIyWlLk6GJQsqaUBKTNV-1">
          <mxGeometry x="490" y="670" width="40" height="30" as="geometry" />
        </mxCell>
        <mxCell id="ftfC63ZBlbfTwAoboH8k-45" style="edgeStyle=orthogonalEdgeStyle;rounded=0;orthogonalLoop=1;jettySize=auto;html=1;exitX=0.5;exitY=1;exitDx=0;exitDy=0;entryX=0.5;entryY=0;entryDx=0;entryDy=0;" edge="1" parent="WIyWlLk6GJQsqaUBKTNV-1" source="ftfC63ZBlbfTwAoboH8k-43" target="ftfC63ZBlbfTwAoboH8k-38">
          <mxGeometry relative="1" as="geometry" />
        </mxCell>
        <mxCell id="ftfC63ZBlbfTwAoboH8k-43" value="催款策略决策" style="rounded=1;whiteSpace=wrap;html=1;fontSize=12;glass=0;strokeWidth=1;shadow=0;" vertex="1" parent="WIyWlLk6GJQsqaUBKTNV-1">
          <mxGeometry x="540" y="740" width="120" height="40" as="geometry" />
        </mxCell>
        <mxCell id="ftfC63ZBlbfTwAoboH8k-47" value="成功" style="text;html=1;align=center;verticalAlign=middle;resizable=0;points=[];autosize=1;strokeColor=none;fillColor=none;" vertex="1" parent="WIyWlLk6GJQsqaUBKTNV-1">
          <mxGeometry x="535" y="930" width="50" height="30" as="geometry" />
        </mxCell>
        <mxCell id="ftfC63ZBlbfTwAoboH8k-48" value="坏账" style="rounded=1;whiteSpace=wrap;html=1;fontSize=12;glass=0;strokeWidth=1;shadow=0;" vertex="1" parent="WIyWlLk6GJQsqaUBKTNV-1">
          <mxGeometry x="670" y="940" width="120" height="40" as="geometry" />
        </mxCell>
        <mxCell id="ftfC63ZBlbfTwAoboH8k-51" value="失败" style="text;html=1;align=center;verticalAlign=middle;resizable=0;points=[];autosize=1;strokeColor=none;fillColor=none;" vertex="1" parent="WIyWlLk6GJQsqaUBKTNV-1">
          <mxGeometry x="610" y="930" width="50" height="30" as="geometry" />
        </mxCell>
        <mxCell id="ftfC63ZBlbfTwAoboH8k-54" value="事中拦截" style="rounded=0;whiteSpace=wrap;html=1;" vertex="1" parent="WIyWlLk6GJQsqaUBKTNV-1">
          <mxGeometry x="510" y="310" width="120" height="60" as="geometry" />
        </mxCell>
        <mxCell id="ftfC63ZBlbfTwAoboH8k-56" value="事后" style="rounded=0;whiteSpace=wrap;html=1;" vertex="1" parent="WIyWlLk6GJQsqaUBKTNV-1">
          <mxGeometry x="210" y="750" width="120" height="60" as="geometry" />
        </mxCell>
        <mxCell id="ftfC63ZBlbfTwAoboH8k-60" value="作弊识别挖掘" style="rounded=1;whiteSpace=wrap;html=1;fontSize=12;glass=0;strokeWidth=1;shadow=0;" vertex="1" parent="WIyWlLk6GJQsqaUBKTNV-1">
          <mxGeometry x="220" y="940" width="120" height="40" as="geometry" />
        </mxCell>
        <mxCell id="ftfC63ZBlbfTwAoboH8k-64" value="关键指标" style="swimlane;startSize=23;" vertex="1" parent="WIyWlLk6GJQsqaUBKTNV-1">
          <mxGeometry x="720" y="210" width="230" height="200" as="geometry" />
        </mxCell>
        <mxCell id="ftfC63ZBlbfTwAoboH8k-65" value="拦截率=&amp;nbsp;" style="text;html=1;align=center;verticalAlign=middle;resizable=0;points=[];autosize=1;strokeColor=none;fillColor=none;" vertex="1" parent="ftfC63ZBlbfTwAoboH8k-64">
          <mxGeometry x="37" y="50" width="70" height="30" as="geometry" />
        </mxCell>
        <mxCell id="ftfC63ZBlbfTwAoboH8k-67" value="提单损失率=" style="text;html=1;align=center;verticalAlign=middle;resizable=0;points=[];autosize=1;strokeColor=none;fillColor=none;" vertex="1" parent="ftfC63ZBlbfTwAoboH8k-64">
          <mxGeometry x="20" y="100" width="90" height="30" as="geometry" />
        </mxCell>
        <mxCell id="ftfC63ZBlbfTwAoboH8k-68" value="坏账率=" style="text;html=1;align=center;verticalAlign=middle;resizable=0;points=[];autosize=1;strokeColor=none;fillColor=none;" vertex="1" parent="ftfC63ZBlbfTwAoboH8k-64">
          <mxGeometry x="30" y="150" width="70" height="30" as="geometry" />
        </mxCell>
        <mxCell id="ftfC63ZBlbfTwAoboH8k-70" value="提单数" style="text;html=1;align=center;verticalAlign=middle;resizable=0;points=[];autosize=1;strokeColor=none;fillColor=none;" vertex="1" parent="ftfC63ZBlbfTwAoboH8k-64">
          <mxGeometry x="115" y="60" width="60" height="30" as="geometry" />
        </mxCell>
        <mxCell id="ftfC63ZBlbfTwAoboH8k-79" value="提单数" style="text;html=1;align=center;verticalAlign=middle;resizable=0;points=[];autosize=1;strokeColor=none;fillColor=none;" vertex="1" parent="ftfC63ZBlbfTwAoboH8k-64">
          <mxGeometry x="125" y="110" width="60" height="30" as="geometry" />
        </mxCell>
        <mxCell id="ftfC63ZBlbfTwAoboH8k-80" value="未接受拦截的订单数量" style="text;html=1;align=center;verticalAlign=middle;resizable=0;points=[];autosize=1;strokeColor=none;fillColor=none;" vertex="1" parent="ftfC63ZBlbfTwAoboH8k-64">
          <mxGeometry x="90" y="85" width="140" height="30" as="geometry" />
        </mxCell>
        <mxCell id="ftfC63ZBlbfTwAoboH8k-81" value="" style="endArrow=none;html=1;rounded=0;entryX=0.927;entryY=1.017;entryDx=0;entryDy=0;entryPerimeter=0;" edge="1" parent="ftfC63ZBlbfTwAoboH8k-64">
          <mxGeometry width="50" height="50" relative="1" as="geometry">
            <mxPoint x="107" y="115" as="sourcePoint" />
            <mxPoint x="209.7800000000002" y="115.50999999999999" as="targetPoint" />
          </mxGeometry>
        </mxCell>
        <mxCell id="ftfC63ZBlbfTwAoboH8k-83" value="完成单的金额预估总价" style="text;html=1;align=center;verticalAlign=middle;resizable=0;points=[];autosize=1;strokeColor=none;fillColor=none;" vertex="1" parent="ftfC63ZBlbfTwAoboH8k-64">
          <mxGeometry x="100" y="162.5" width="140" height="30" as="geometry" />
        </mxCell>
        <mxCell id="ftfC63ZBlbfTwAoboH8k-84" value="坏账金额" style="text;html=1;align=center;verticalAlign=middle;resizable=0;points=[];autosize=1;strokeColor=none;fillColor=none;" vertex="1" parent="ftfC63ZBlbfTwAoboH8k-64">
          <mxGeometry x="125" y="137.5" width="70" height="30" as="geometry" />
        </mxCell>
        <mxCell id="ftfC63ZBlbfTwAoboH8k-85" value="" style="endArrow=none;html=1;rounded=0;entryX=1.021;entryY=0.15;entryDx=0;entryDy=0;entryPerimeter=0;" edge="1" parent="ftfC63ZBlbfTwAoboH8k-64">
          <mxGeometry width="50" height="50" relative="1" as="geometry">
            <mxPoint x="98" y="166.5" as="sourcePoint" />
            <mxPoint x="223.94000000000005" y="166" as="targetPoint" />
          </mxGeometry>
        </mxCell>
        <mxCell id="ftfC63ZBlbfTwAoboH8k-69" value="拦截的订单数量" style="text;html=1;align=center;verticalAlign=middle;resizable=0;points=[];autosize=1;strokeColor=none;fillColor=none;" vertex="1" parent="WIyWlLk6GJQsqaUBKTNV-1">
          <mxGeometry x="815" y="245" width="110" height="30" as="geometry" />
        </mxCell>
        <mxCell id="ftfC63ZBlbfTwAoboH8k-75" value="" style="endArrow=none;html=1;rounded=0;entryX=0.927;entryY=1.017;entryDx=0;entryDy=0;entryPerimeter=0;" edge="1" parent="WIyWlLk6GJQsqaUBKTNV-1" target="ftfC63ZBlbfTwAoboH8k-69">
          <mxGeometry width="50" height="50" relative="1" as="geometry">
            <mxPoint x="827" y="275" as="sourcePoint" />
            <mxPoint x="897" y="275" as="targetPoint" />
          </mxGeometry>
        </mxCell>
      </root>
    </mxGraphModel>
  </diagram>
</mxfile>
